<svg width="68" height="40" fill="none" xmlns="http://www.w3.org/2000/svg"><g clip-path="url(#clip0)" fill="#fff"><path d="M27.074 3.03h3.296l1.028 3.613c.369 1.303.582 2.195.582 2.195h.039s.193-.893.601-2.195l1.164-3.613h3.044l-3.257 8.975h-3.375L27.074 3.03zM41.33 8.412h-.409c-1.124 0-1.513.35-1.513.933 0 .428.291.757.834.757.524 0 1.086-.272 1.086-1.107v-.583h.001zm3.024.641c0 .428.117.661.447.661.194 0 .389-.078.563-.174v2.214c-.428.311-.834.428-1.552.428-1.202 0-1.862-.543-2.211-1.418-.504.933-1.3 1.457-2.58 1.457-1.648 0-2.677-.972-2.677-2.505 0-1.924 1.377-2.895 4.073-2.895h.912v-.603c0-.583-.193-.991-.756-.991-.543 0-.795.33-.834 1.068l-2.986-.466c.174-1.846 1.61-3.012 3.918-3.012 2.56 0 3.685 1.127 3.685 3.089v3.147h-.002zM51.977 6.567c-.37-.136-.582-.233-1.086-.233-.737 0-1.63.291-1.63 1.884v3.789h-3.123V3.03h2.677l.31 2.215c.252-1.497 1.514-2.215 3.045-2.215l-.193 3.537zM58.803 6.878c0-1.147-.563-1.769-1.475-1.769-.912 0-1.687.68-1.687 2.467 0 1.477.62 2.254 1.648 2.254.795 0 1.514-.603 1.514-1.827V6.878zM58.782 0h3.142v12.007h-2.831l-.291-1.555c-.33 1.205-1.397 1.787-2.754 1.787-2.094 0-3.588-1.631-3.588-4.546 0-3.01 1.436-4.876 3.957-4.876 1.144 0 2.056.524 2.366 1.38V0zM3.162 33.53h1.222c1.105 0 1.59-.447 1.59-1.264 0-.816-.485-1.262-1.59-1.262H3.162v2.526zM6.4 39.766c-.37-.311-.504-.738-.64-1.282l-.35-1.418c-.194-.816-.523-.972-1.261-.972h-.99v3.672H0V28.323h4.888c2.56 0 4.325.991 4.325 3.593 0 1.808-1.164 2.701-2.424 2.915 1.047.213 1.57.68 1.844 1.67l.543 1.962c.135.505.29.894.698 1.301H6.4v.002zM17.979 30.79h3.296l1.028 3.614c.369 1.301.582 2.196.582 2.196h.038s.194-.894.602-2.196l1.164-3.613h3.044l-3.259 8.976H21.1l-3.122-8.976zM31.535 39.766h-3.122v-8.977h3.122v8.977zm-1.571-12.86c.931 0 1.726.641 1.726 1.65 0 1.012-.795 1.652-1.726 1.652-.932 0-1.726-.642-1.726-1.651 0-1.011.796-1.651 1.726-1.651zM38.07 34.308c0-.777-.271-1.458-1.144-1.458-.756 0-1.24.622-1.319 1.458h2.463zm.31 2.214l2.6.816C40.476 39.26 38.885 40 37.1 40c-2.657 0-4.597-1.69-4.597-4.624 0-3.03 1.707-4.799 4.52-4.799 2.657 0 4.014 1.71 4.014 4.196 0 .33 0 .719-.039 1.127h-5.47c.059 1.107.602 1.71 1.532 1.71.661 0 1.107-.292 1.32-1.088zM49.416 30.79l.64 3.129c.33 1.612.505 2.817.505 2.817h.039s.193-1.186.562-2.778l.717-3.167h3.045L52.5 39.767h-3.511l-.543-2.623c-.271-1.32-.484-2.875-.484-2.875h-.04s-.212 1.555-.484 2.875l-.543 2.623h-3.491l-2.424-8.976h3.161l.719 3.167c.369 1.592.562 2.778.562 2.778h.04s.173-1.205.503-2.817l.64-3.128h2.811zM26.686 6.567c-.368-.136-.581-.233-1.085-.233-.737 0-1.63.291-1.63 1.884v3.789h-3.123V3.03h2.677l.31 2.215c.252-1.497 1.512-2.215 3.045-2.215l-.194 3.537zM0 12.007V.563h3.181v4.255H7.1V.563h3.18v11.444H7.1v-4.43H3.18v4.43H0zM16.04 8.412h-.409c-1.125 0-1.513.35-1.513.933 0 .428.29.757.834.757.523 0 1.086-.272 1.086-1.107v-.583h.001zm3.024.641c0 .428.117.661.447.661.194 0 .389-.078.563-.174v2.214c-.427.311-.834.428-1.551.428-1.203 0-1.862-.543-2.211-1.418-.504.933-1.3 1.457-2.58 1.457-1.648 0-2.677-.972-2.677-2.505 0-1.924 1.377-2.895 4.074-2.895h.911v-.603c0-.583-.193-.991-.756-.991-.543 0-.795.33-.834 1.068l-2.987-.466c.174-1.846 1.61-3.012 3.918-3.012 2.56 0 3.685 1.127 3.685 3.089v3.147h-.002zM15.244 34.308c0-.777-.271-1.458-1.144-1.458-.756 0-1.242.622-1.319 1.458h2.463zm.31 2.214l2.6.816C17.65 39.261 16.059 40 14.275 40c-2.657 0-4.597-1.69-4.597-4.624 0-3.03 1.707-4.799 4.52-4.799 2.657 0 4.014 1.71 4.014 4.196 0 .331 0 .719-.039 1.127h-5.47c.059 1.108.602 1.71 1.533 1.71.659 0 1.106-.291 1.319-1.088zM3.142 23.264H4.79c.795 0 1.242-.35 1.242-1.01s-.445-1.01-1.242-1.01H3.142v2.02zm0-4.06h1.222c.815 0 1.319-.312 1.319-1.089 0-.776-.504-1.087-1.319-1.087H3.142v2.175zm6.148 3.594c0 1.846-1.26 3.089-4.054 3.089H0V14.444h5.081c2.424 0 3.724 1.107 3.724 2.992 0 1.34-.775 2.273-1.997 2.584 1.609.33 2.482 1.417 2.482 2.778zM15.477 24.215c-.252 1.185-1.164 1.904-2.697 1.904-1.629 0-2.773-1.01-2.773-3.128v-6.082h3.142v5.42c0 .895.252 1.438.97 1.438.815 0 1.319-.737 1.319-2.194v-4.664h3.142v8.975h-2.812l-.291-1.669zM21.78 22.798c.173.738.736 1.127 1.415 1.127.563 0 .95-.194.95-.583 0-.389-.33-.563-.97-.7l-1.202-.252c-1.63-.35-2.482-1.186-2.482-2.662 0-2.176 1.86-3.03 3.859-3.03 2.152 0 3.452.893 3.763 2.564l-2.852.428c-.097-.505-.407-.796-1.008-.796-.446 0-.757.213-.757.563s.252.524.717.602l1.203.214c1.978.33 2.812 1.399 2.812 2.914 0 2.117-1.843 2.934-4.054 2.934-2.037 0-3.394-.737-3.898-2.331l2.503-.992zM31.264 25.887H28.14v-8.975h3.123v8.975zm-1.572-12.861c.931 0 1.726.641 1.726 1.65 0 1.012-.794 1.652-1.726 1.652-.931 0-1.726-.642-1.726-1.651 0-1.01.795-1.651 1.726-1.651zM35.724 18.64c.466-1.34 1.514-1.943 2.852-1.943 1.377 0 2.618.816 2.618 2.876v6.314h-3.122v-5.11c0-.913-.272-1.476-1.067-1.476-.68 0-1.261.408-1.261 1.788v4.798h-3.123v-8.975h2.813l.29 1.728zM47.612 20.428c0-.777-.271-1.458-1.144-1.458-.756 0-1.242.622-1.319 1.458h2.463zm.31 2.214l2.6.816c-.504 1.924-2.095 2.662-3.879 2.662-2.657 0-4.597-1.69-4.597-4.624 0-3.03 1.707-4.799 4.52-4.799 2.657 0 4.014 1.71 4.014 4.196 0 .33 0 .72-.039 1.127h-5.47c.059 1.107.602 1.71 1.532 1.71.66 0 1.107-.292 1.32-1.088zM53.45 22.798c.174.738.736 1.127 1.415 1.127.563 0 .951-.194.951-.583 0-.389-.33-.563-.969-.7l-1.203-.252c-1.628-.35-2.482-1.186-2.482-2.662 0-2.176 1.861-3.03 3.86-3.03 2.153 0 3.452.893 3.762 2.564l-2.85.428c-.098-.505-.409-.796-1.009-.796-.447 0-.756.213-.756.563s.252.524.717.602l1.203.214c1.978.33 2.812 1.399 2.812 2.914 0 2.117-1.843 2.934-4.054 2.934-2.037 0-3.394-.737-3.898-2.331l2.5-.992zM61.75 22.798c.175.738.738 1.127 1.416 1.127.562 0 .95-.194.95-.583 0-.389-.33-.563-.97-.7l-1.203-.252c-1.628-.35-2.482-1.186-2.482-2.662 0-2.176 1.863-3.03 3.86-3.03 2.151 0 3.452.893 3.762 2.564l-2.85.428c-.098-.505-.409-.796-1.009-.796-.445 0-.756.213-.756.563s.252.524.717.602l1.203.214c1.978.33 2.812 1.399 2.812 2.914 0 2.117-1.843 2.934-4.054 2.934-2.037 0-3.394-.737-3.898-2.331l2.502-.992z"/></g><defs><clipPath id="clip0"><path fill="#fff" d="M0 0h67.2v40H0z"/></clipPath></defs></svg>